PathFileType	4	(X/Y/Z)	C:/Users/opensim2020/Desktop/walking_exp_matlab/subject06_walking17_straight_04.trc	
DataRate	CameraRate	NumFrames	NumMarkers	Units	OrigDataRate	OrigDataStartFrame	OrigNumFrames	
100.00	100.00	4	45	mm	100.00	4564	318	
Frame#	Time	LFHD			RFHD			LBHD			RBHD			C7			T10			CLAV			STRN			RBAK			LSHO			LUPA			LELB			LFRM			LWRA			LWRB			LFIN			RSHO			RUPA			RELB			RFRM			RWRA			RWRB			RFIN			LASI			RASI			LPSI			RPSI			LTHI			LKNE			LTIB			LANK			LHEE			LTOE			RTHI			RKNE			RTIB			RANK			RHEE			RTOE			*39			*40			*41			*42			*43			*44			
		X1	Y1	Z1	X2	Y2	Z2	X3	Y3	Z3	X4	Y4	Z4	X5	Y5	Z5	X6	Y6	Z6	X7	Y7	Z7	X8	Y8	Z8	X9	Y9	Z9	X10	Y10	Z10	X11	Y11	Z11	X12	Y12	Z12	X13	Y13	Z13	X14	Y14	Z14	X15	Y15	Z15	X16	Y16	Z16	X17	Y17	Z17	X18	Y18	Z18	X19	Y19	Z19	X20	Y20	Z20	X21	Y21	Z21	X22	Y22	Z22	X23	Y23	Z23	X24	Y24	Z24	X25	Y25	Z25	X26	Y26	Z26	X27	Y27	Z27	X28	Y28	Z28	X29	Y29	Z29	X30	Y30	Z30	X31	Y31	Z31	X32	Y32	Z32	X33	Y33	Z33	X34	Y34	Z34	X35	Y35	Z35	X36	Y36	Z36	X37	Y37	Z37	X38	Y38	Z38	X39	Y39	Z39	X40	Y40	Z40	X41	Y41	Z41	X42	Y42	Z42	X43	Y43	Z43	X44	Y44	Z44	X45	Y45	Z45	

279	2.780	1488.97192	-440.66455	1677.31104	1358.53833	-434.35754	1654.63782	1501.56860	-310.01141	1617.76453	1373.45911	-304.73233	1600.87695	1453.35620	-312.52307	1458.15747	1447.61096	-283.89935	1129.54883	1453.22461	-422.46545	1381.45593	1466.77783	-462.84799	1205.83264	1374.68591	-242.74016	1284.70239	1614.17383	-371.68927	1415.54053	1684.25916	-390.82227	1212.48645	1693.40149	-401.68240	1099.39990	1706.98254	-458.53729	959.24365	1651.91455	-536.89093	861.60791	1697.08582	-485.40677	842.74445	1689.25659	-543.62274	771.46979	1291.72327	-379.26886	1410.69922	1204.87256	-338.63409	1212.82495	1194.11340	-347.35989	1090.67688	1178.43188	-367.14783	971.83014	1212.73352	-434.40521	837.07361	1172.07288	-379.39703	834.96478	1172.68176	-419.24875	759.95508	1571.18579	-448.65549	965.91803	1350.35107	-472.67712	976.34723	1529.39319	-295.95645	997.41260	1362.28186	-319.43124	1005.51227	1615.80579	-356.91916	648.35156	1593.55884	-343.91064	485.19553	1581.43079	-166.62706	302.38922	1542.44385	-54.44362	172.51961	1497.59265	-16.64498	191.16724	1524.97180	-126.67143	45.87782	1292.27319	-439.83539	645.92505	1318.63123	-451.34656	521.14270	1323.27222	-435.95648	257.10168	1373.54248	-441.80811	72.41496	1420.00513	-403.36148	47.57391	1382.33704	-594.52838	42.13331	1432.20532	-335.79547	1705.92908															 
280	2.790	1488.13269	-446.97302	1677.55151	1357.69604	-440.54520	1654.95984	1500.88806	-316.37061	1617.86987	1372.78760	-311.02365	1600.98047	1452.46082	-319.14035	1458.28662	1446.59412	-290.25949	1129.84790	1452.29297	-429.18890	1381.55310	1465.67053	-469.21671	1205.76245	1373.84949	-249.26889	1284.98376	1613.33118	-378.61774	1415.47815	1683.42969	-396.21796	1212.19592	1692.75525	-406.09430	1099.15015	1707.07605	-460.99515	958.26807	1653.05078	-538.33569	859.26862	1697.80835	-486.16663	841.41333	1690.77344	-543.24091	769.09021	1290.87891	-385.81223	1410.93164	1203.75000	-345.06479	1213.15051	1192.73718	-353.89648	1091.06116	1176.88684	-374.42593	972.40088	1211.03699	-442.22580	837.94324	1170.56250	-387.63684	835.61584	1171.06714	-427.94571	760.90143	1570.40381	-454.46609	965.83893	1349.64600	-479.75156	976.80908	1528.22339	-301.91891	997.19055	1361.34204	-326.27002	1005.98975	1615.03601	-365.61676	647.84467	1593.19934	-355.18234	484.59244	1582.03931	-176.21014	304.72198	1544.22900	-61.54731	176.97977	1499.65771	-24.00139	196.82509	1525.59644	-129.38106	48.02013	1291.64526	-445.56494	646.09753	1317.56738	-455.70410	520.80396	1322.67603	-438.22232	257.08386	1373.41431	-442.18002	72.26464	1418.86584	-403.56076	47.66093	1382.51636	-594.72009	42.01743	1431.51892	-341.94098	1706.05017															 
281	2.800	1487.41040	-453.24106	1677.79333	1356.99878	-446.72366	1655.27197	1500.25830	-322.68964	1617.93140	1372.20166	-317.13092	1601.14941	1451.95752	-325.70685	1458.49756	1445.46448	-296.49817	1130.05078	1451.42786	-435.75531	1381.67810	1464.67517	-475.47958	1205.71667	1373.11475	-255.70078	1285.32690	1612.62842	-385.37735	1415.40479	1682.62830	-401.36346	1211.97363	1692.15540	-410.33450	1098.93140	1707.35730	-463.24573	957.34979	1654.25464	-539.78503	857.15576	1698.53259	-486.95688	840.21802	1692.31177	-543.00555	767.05927	1290.06897	-392.28195	1411.17310	1202.66626	-351.86029	1213.54431	1191.34741	-360.55267	1091.51477	1175.43738	-381.63043	972.99957	1209.66394	-449.84225	838.80145	1169.11938	-395.74323	836.28003	1169.50159	-436.49506	761.87646	1569.64502	-460.12952	965.76044	1349.01758	-486.26627	977.00006	1526.85547	-307.66025	997.02893	1360.10120	-333.02609	1006.20752	1614.11658	-374.41721	647.40778	1592.82788	-366.62125	484.11581	1582.83093	-186.13560	306.92383	1546.12964	-69.10240	181.33800	1501.90161	-31.82639	202.46632	1526.26404	-132.60452	50.14612	1291.01233	-450.91626	646.19006	1316.55798	-459.73648	520.39679	1322.18384	-440.10861	256.97879	1373.32825	-442.43768	72.21999	1419.08069	-403.36603	47.58225	1382.69421	-594.84399	41.92763	1430.95862	-348.10788	1706.20337															 
282	2.810	1486.82581	-459.57382	1678.00439	1356.32312	-452.69693	1655.49902	1499.84106	-328.97180	1618.01904	1371.63684	-323.36017	1601.25122	1451.32214	-332.19919	1458.65430	1444.29846	-302.74026	1130.25940	1450.67676	-442.18503	1381.71802	1463.79321	-481.80566	1205.64648	1372.50281	-262.11261	1285.60889	1611.93176	-391.95114	1415.40112	1681.94702	-406.31516	1211.77856	1691.63562	-414.30685	1098.80164	1707.27869	-465.36911	956.39459	1655.49536	-541.19385	855.27496	1699.32983	-487.77313	839.24432	1693.84705	-542.91388	765.28381	1289.34644	-398.73349	1411.45471	1201.55603	-358.38437	1213.97070	1190.03027	-367.15698	1091.99292	1173.89917	-388.91147	973.66071	1208.07031	-458.31027	840.09985	1167.67493	-403.81207	837.06311	1167.99512	-445.17960	762.98981	1568.92285	-465.59555	965.69110	1348.41663	-492.74155	977.16473	1525.31055	-313.28693	996.93652	1358.66479	-339.35770	1006.41125	1613.18701	-383.23199	647.00714	1592.47546	-377.94461	483.70886	1583.64111	-196.44824	309.01529	1547.92334	-77.02611	185.59961	1504.04041	-40.08131	207.79219	1527.29578	-136.52817	52.57115	1290.39978	-455.92816	646.11743	1315.48743	-463.42773	519.93372	1321.74231	-441.68338	256.94037	1373.27795	-442.58289	72.19492	1418.97522	-403.28131	47.58763	1382.90430	-594.89502	41.83024	1430.47388	-354.19775	1706.35437															 
